<?xml version="1.0" encoding="UTF-8" standalone="no"?>
<svg
   xmlns:dc="http://purl.org/dc/elements/1.1/"
   xmlns:cc="http://creativecommons.org/ns#"
   xmlns:rdf="http://www.w3.org/1999/02/22-rdf-syntax-ns#"
   xmlns:svg="http://www.w3.org/2000/svg"
   xmlns="http://www.w3.org/2000/svg"
   viewBox="0 0 582.17334 572.08002"
   height="572.08002"
   width="582.17334"
   xml:space="preserve"
   id="svg2"
   version="1.1"><metadata
     id="metadata8"><rdf:RDF><cc:Work
         rdf:about=""><dc:format>image/svg+xml</dc:format><dc:type
           rdf:resource="http://purl.org/dc/dcmitype/StillImage" /></cc:Work></rdf:RDF></metadata><defs
     id="defs6" /><g
     transform="matrix(1.3333333,0,0,-1.3333333,0,572.08)"
     id="g10"><g
       transform="scale(0.1)"
       id="g12"><path
         id="path14"
         style="fill:#231f20;fill-opacity:1;fill-rule:nonzero;stroke:none"
         d="m 4280.05,2880.92 c 122.81,-416.91 119.24,-990.02 -41.73,-1368.39 -93,56.04 -119.63,91.81 -175.27,175.27 -47.69,71.55 -0.39,190.37 -25.04,333.86 -9.53,54.84 -44.91,114.06 -58.42,175.26 -7.56,34.18 -11.92,63.6 -16.7,99.77 -9.93,80.28 -25.04,165.73 -66.77,242.04 -23.04,42.13 -66.76,78.29 -83.45,125.19 -5.97,16.69 -4.38,79.88 -8.35,91.81 -9.54,29.41 -40.54,63.99 -58.43,100.15 -46.9,96.19 -83.07,220.59 -133.15,316.77 -71.53,136.72 -167.32,256.35 -233.69,367.23 -41.34,69.16 -54.05,281.39 -58.42,350.55 -6.36,98.16 -3.98,185.21 108.5,191.96 76.31,3.98 185.61,-91.81 258.73,-158.58 154.21,-141.88 236.88,-288.93 341.81,-475.74 94.59,-168.51 187.59,-354.12 250.38,-567.15" /><path
         id="path16"
         style="fill:#231f20;fill-opacity:1;fill-rule:nonzero;stroke:none"
         d="m 4246.67,1470.8 c -90.62,-56.43 80.28,-141.49 41.73,-225.35 -69.15,-5.97 -140.69,1.19 -166.93,58.43 -102.53,-4.78 -133.14,88.23 -183.62,150.22 -34.57,42.53 -85.05,92.61 -133.53,133.55 -13.52,11.52 -42.13,23.44 -50.08,33.39 -27.82,36.56 -33.39,101.34 -66.38,158.57 -46.49,79.88 -112.47,120.82 -116.84,175.27 -3.19,33.39 27.03,67.57 33.38,100.16 20.67,107.31 21.07,271.05 16.69,358.49 -10.73,201.11 -109.29,343.79 -191.96,492.43 -21.06,37.36 -33.78,75.92 -58.43,108.5 -21.06,27.83 -48.08,50.88 -75.11,83.47 38.55,18.28 67.16,8.34 100.15,0 40.54,-10.73 62,-46.11 91.81,-58.43 30.21,-12.72 163.75,0.4 233.3,-191.96 10.73,-29.41 44.51,-52.07 50.08,-66.77 16.7,-42.93 11.52,-91.81 33.39,-141.89 32.58,-74.32 104.13,-149.84 125.19,-250.39 15.5,-73.52 6.36,-155 25.04,-224.95 16.29,-62 60.41,-115.65 66.77,-166.92 9.93,-79.1 -15.9,-149.44 -8.35,-217.01 14.71,-127.18 87.84,-207.86 175.27,-275.43 17.49,-13.51 32.59,-35.37 58.43,-33.38" /><path
         id="path18"
         style="fill:#231f20;fill-opacity:1;fill-rule:nonzero;stroke:none"
         d="m 4121.47,1245.45 c 15.1,-49.29 -110.88,-216.21 -133.54,-249.989 -60.8,-92.211 -100.95,-148.641 -150.23,-225.352 -47.3,105.321 -44.91,108.5 -80.29,267.881 -7.15,33.78 -41.33,265.89 -44.51,299.27 -4.77,44.12 5.17,87.44 -1.98,131.16 -8.35,53.25 -39.75,92.6 9.93,160.96 30.61,-58.03 157.39,-127.18 225.35,-217.01 33.39,-44.11 44.12,-94.99 75.12,-116.84 28.61,-19.88 90.21,-17.88 100.15,-50.08" /><path
         id="path20"
         style="fill:#231f20;fill-opacity:1;fill-rule:nonzero;stroke:none"
         d="m 3987.93,553.109 c 8.35,-34.179 12.72,-160.168 0,-175.281 -54.44,-64.777 -210.24,54.461 -225.34,83.473 -10.73,21.449 -2.79,73.519 -16.7,108.5 -9.14,23.84 -35.77,42.929 -41.33,58.418 -37.36,100.953 -43.32,227.742 -75.12,342.203 -14.3,49.678 -78.3,277.008 -100.15,316.758 -17.49,31.8 -65.58,49.69 -91.81,91.81 -12.72,20.27 -182.43,250.79 -208.66,283.77 -67.57,85.05 -122.81,168.92 -175.28,283.77 -36.96,80.69 -85.84,164.15 -83.45,217.01 1.19,20.27 26.23,46.5 33.38,74.72 21.86,85.85 9.54,197.13 16.7,267.08 -36.58,-3.97 -22.66,-68.76 -24.25,-98.57 -2.38,-58.82 -2.38,-147.84 -25.83,-201.5 -13.12,-31 -75.12,-80.28 -116.86,-116.85 -135.12,-120.02 -261.51,-210.25 -450.3,-285.36 -55.64,-22.26 -180.04,-51.27 -261.91,-66.37 -168.52,-31.01 -381.94,-58.43 -547.28,-107.31 -29.01,16.29 18.68,38.95 29.81,48.48 40.14,33.39 83.07,87.44 106.91,148.25 17.88,47.3 35.37,101.75 54.85,153.81 19.07,49.28 42.53,102.54 33.39,158.58 -45.32,-1.19 -19.08,-55.64 -25.04,-75.12 -13.12,-46.1 -34.98,-81.87 -49.69,-133.54 -13.91,-48.48 -27.42,-77.9 -50.07,-116.84 -22.26,-38.16 -39.35,-72.74 -75.12,-108.51 -38.15,-37.75 -58.42,-41.73 -83.46,-100.15 -15.5,-35.37 -33.79,-96.98 -58.43,-141.89 -17.49,-31.39 -190.37,-306.02 -250.39,-400.22 -31.79,-49.68 -59.21,-78.691 -83.46,-150.242 -7.15,-21.847 -6.36,-58.418 -16.69,-75.109 -19.47,-32.59 -60.41,-48.488 -83.46,-75.117 -54.058,-62.793 -71.148,-112.071 -108.503,-208.653 -15.5,-40.539 -41.336,-81.48 -50.078,-116.847 -9.539,-40.942 1.984,-88.633 -16.692,-133.543 -15.898,-38.559 -75.515,-59.219 -91.41,-99.758 -12.723,-32.199 12.316,-63.59 0,-91.813 C 747.984,47.1602 590.996,60.6719 507.133,76.9688 c -19.074,2.7929 17.492,60.8012 32.191,91.8122 12.324,25.828 30.61,67.571 44.914,83.86 17.887,21.058 59.219,25.839 75.117,41.73 38.95,39.738 29.012,91.41 50.079,133.539 25.433,52.461 82.269,99.762 116.843,158.578 30.61,52.864 68.368,120.422 83.071,191.973 11.922,57.219 -11.528,127.578 8.347,200.309 13.512,48.49 70.348,78.69 100.155,125.19 63.59,98.17 111.68,290.92 175.27,416.92 22.66,44.91 61.6,85.85 66.77,125.19 13.91,104.93 -52.86,120.42 -100.15,317.16 -2.39,10.34 13.51,44.51 -16.7,41.73 -26.62,-18.28 -4.37,-51.67 0,-75.12 27.03,-147.45 170.11,-222.96 25.04,-408.96 -27.42,63.58 -28.22,127.18 -41.73,191.96 -4.77,23.05 -2.39,50.87 -8.35,66.77 -14.7,40.94 -58.82,84.66 -83.46,125.2 -46.497,77.9 -89.028,140.69 -83.462,267.08 2.785,60.41 24.641,144.67 50.082,233.3 11.13,39.34 36.16,85.84 41.73,125.19 8.74,58.03 -11.13,108.1 -16.69,166.93 -15.9,178.45 45.3,437.58 -8.75,640.67 60.81,-67.96 101.74,-81.48 149.04,-142.28 53.26,-68.36 62,-203.1 93.4,-264.7 26.23,-51.66 112.48,-124 225.35,-75.12 56.43,24.25 37.36,62.01 66.77,125.2 23.05,49.28 54.05,72.33 56.04,125.99 1.99,52.86 -18.28,54.45 -31,107.31 -13.11,54.45 -6.76,119.63 1.19,187.59 3.18,27.42 1.99,73.53 0,103.33 -1.99,27.83 -1.99,46.9 7.95,89.83 5.17,3.58 29.02,-78.69 40.94,-105.33 11.52,-26.23 5.56,-63.59 16.69,-83.46 1.19,-1.98 35.77,-37.36 50.08,-50.07 27.02,-24.25 64.78,-39.35 83.06,-75.12 7.95,-14.71 9.14,-58.42 16.7,-66.77 25.83,-27.03 170.1,-74.33 233.69,-75.12 100.95,-0.4 198.72,35.37 283.77,58.43 46.11,12.71 92.21,20.26 133.55,33.38 64.78,20.67 117.63,56.84 200.31,66.77 239.26,29.02 429.63,-27.82 550.45,-116.85 86.25,-63.19 135.14,-169.31 208.66,-266.68 43.72,-58.43 93.4,-166.13 125.2,-242.04 65.97,-157.79 95.38,-424.47 41.73,-650.61 -6.36,-26.24 -42.53,-70.35 -50.08,-125.2 -18.28,-131.95 37.36,-257.14 97.37,-323.12 9.94,-11.13 35.77,-23.85 48.49,-40.94 15.1,-20.27 7.16,-34.18 8.75,-43.32 7.95,-53.65 28.61,-289.33 45.3,-361.67 9.14,-39.74 49.69,-341 116.05,-394.262 49.68,-39.75 -13.11,-86.25 25.83,-96.578 31.01,-5.961 35.78,14.309 66.78,8.34 16.69,-21.058 45.7,-38.551 58.42,-91.801" /><path
         id="path22"
         style="fill:#231f20;fill-opacity:1;fill-rule:nonzero;stroke:none"
         d="m 3654.48,736.719 c 6.36,-34.571 26.62,-99.36 25.04,-108.5 -5.16,-26.231 -78.7,-84.649 -120.83,-121.617 C 3425.16,390.551 3292.01,307.488 3137.01,228 2936.3,125.059 2472.09,17.75 2411.28,11 2257.47,-6.48828 2090.94,-0.53125 1952.24,11 1519.02,47.1602 1162.52,233.961 909.348,402.871 c 10.336,27.027 13.511,49.289 23.05,75.117 9.938,25.832 16.293,40.141 23.051,59.621 10.332,29.012 17.09,69.95 29.016,98.961 3.973,9.141 16.695,35.758 24.245,48.879 11.12,18.68 16.69,22.66 25.83,34.582 38.55,49.289 116.45,67.168 116.85,141.879 56.83,-36.961 88.63,-69.551 150.23,-108.488 15.5,-9.543 30.21,-20.684 38.16,-30.211 4.77,-5.563 18.68,-20.672 28.61,-44.91 11.13,-26.231 41.73,-63.992 58.43,-100.153 22.25,-48.097 36.16,-104.929 58.42,-150.238 19.08,-38.941 63.19,-75.519 76.31,-105.719 15.9,-36.961 2.39,-63.992 26.63,-95.781 17.88,-24.238 122.41,-73.129 185.2,-93 65.18,-20.269 180.05,17.09 203.9,61.199 12.71,22.661 -13.12,57.243 0,91.422 15.49,40.528 110.08,42.528 141.88,100.149 13.52,24.64 2.38,65.582 8.34,91.808 4.38,19.473 21.87,45.703 33.39,75.121 27.82,72.332 45.31,96.969 83.47,158.571 23.05,37.359 34.18,76.711 50.07,83.468 44.11,19.082 149.84,0.403 217.01,-8.347 129.17,-16.692 342.98,-83.461 475.34,-58.422 85.45,16.293 212.23,135.133 283.77,200.312 101.34,92.209 174.08,186.799 242.04,283.769 56.44,-102.94 108.1,-300.858 141.89,-475.741" /><path
         id="path24"
         style="fill:#231f20;fill-opacity:1;fill-rule:nonzero;stroke:none"
         d="m 2678.36,1929.84 c 14.71,2.39 21.06,5.17 8.35,-8.35 -62.79,-84.25 -134.34,-134.72 -166.92,-225.34 -10.34,-27.82 -5.17,-71.54 -16.7,-108.5 -12.32,-38.16 -34.18,-58.82 -41.73,-108.51 -9.14,-59.61 -9.93,-135.53 -8.35,-191.96 0.8,-27.42 13.11,-63.2 8.35,-91.41 -3.98,-22.25 -29.42,-70.35 -50.08,-108.5 -17.09,-31.8 -41.73,-67.17 -58.43,-100.161 -36.16,-71.14 -68.35,-149.828 -100.15,-208.648 -53.26,-98.57 -122.81,-181.629 -150.23,-258.742 -15.5,-43.719 -9.94,-103.731 -33.39,-133.539 -27.82,-35.371 -89.82,-36.961 -108.5,-75.11 -15.5,-32.199 5.57,-81.48 -16.69,-108.109 -11.93,-14.711 -100.95,-43.32 -141.89,-41.731 -48.09,1.192 -116.85,43.711 -158.18,66.77 -71.94,39.34 -29.02,21.059 -58.42,108.102 -8.75,25.828 -48.1,48.488 -66.77,83.457 -17.89,32.992 -27.43,87.839 -50.08,133.55 -73.13,147.852 -200.71,298.469 -200.31,484.081 0.39,63.19 62.39,139.11 103.33,209.45 31,53.65 70.35,116.85 105.32,174.08 19.08,-296.49 -39.74,-561.982 100.16,-734.079 36.17,-44.903 93.79,-76.313 108.5,-116.84 11.13,-31.801 -7.55,-72.34 8.35,-91.813 12.72,-15.898 36.96,-13.117 66.37,-25.039 43.72,-17.09 62.4,-43.719 83.47,-41.73 65.97,6.761 50.47,79.48 75.11,141.89 21.06,52.86 79.89,101.34 116.85,158.571 33.38,50.879 94.59,125.601 108.5,191.968 6.76,31.403 8.34,68.364 16.69,100.162 9.14,34.57 27.82,64.77 33.39,100.15 32.59,197.52 -38.95,397.84 -16.7,617.23 205.88,30.21 372.8,99.76 500.78,208.65" /><path
         id="path26"
         style="fill:#231f20;fill-opacity:1;fill-rule:nonzero;stroke:none"
         d="m 2044.04,786.801 c -7.95,-53.653 -89.03,-122.813 -134.73,-194.352 -24.24,-38.148 -25.43,-134.328 -59.62,-149.429 -19.47,-8.348 -45.7,16.289 -74.71,26.23 -24.65,8.738 -51.27,11.52 -56.04,17.09 -15.11,28.211 2.38,83.058 -21.46,120.82 -28.22,44.512 -88.64,70.34 -103.74,121.219 143.08,26.633 300.47,38.543 450.3,58.422" /><path
         id="path28"
         style="fill:#231f20;fill-opacity:1;fill-rule:nonzero;stroke:none"
         d="m 1552.01,3848.7 c 23.85,-29.81 49.68,-40.94 41.73,-116.85 -5.56,-51.27 -36.17,-107.31 -41.73,-175.27 -4.77,-56.84 2.78,-129.17 0,-191.97 -2.39,-50.47 -15.1,-98.56 -8.35,-133.54 6.36,-32.19 35.77,-89.82 36.17,-119.63 0,-50.08 -20.27,-60.01 -40.54,-106.12 -16.69,-38.55 -21.86,-85.05 -49.68,-112.47 -30.6,-30.21 -127.18,-29.81 -171.29,4.77 -36.97,28.61 -52.87,111.28 -66.78,175.27 -4.37,19.47 -8.74,51.27 -15.1,65.58 -14.31,33.78 -41.33,70.74 -76.7,111.28 -73.53,84.26 -93.01,49.29 -133.54,123.21 -29.016,52.86 -53.262,176.06 -56.044,262.7 -1.593,60.42 16.692,119.24 33.784,176.07 13.12,43.72 39.35,87.04 47.3,128.77 21.06,112.09 -106.92,265.89 7.15,340.61 37.36,-24.24 54.05,-184.81 141.88,-232.5 27.83,-14.71 38.16,31.39 101.75,34.18 68.76,2.38 33.78,6.76 108.1,-27.03 40.54,47.3 90.62,161.37 125.2,234.89 49.28,-75.91 50.47,-132.35 16.69,-224.95 -18.68,-51.27 -56.43,-84.65 -33.38,-158.58 6.75,-22.26 18.28,-39.35 33.38,-58.42" /><path
         id="path30"
         style="fill:#231f20;fill-opacity:1;fill-rule:nonzero;stroke:none"
         d="m 1026.2,3965.54 c 3.97,-38.15 -27.028,-85.84 -42.532,-133.54 -42.922,-131.95 -47.297,-216.61 -20.27,-324.71 15.504,-62 -66.765,-138.31 -112.082,-209.45 -49.281,-76.31 -93.394,-160.56 -125.187,-224.95 -133.539,-269.47 -241.25,-611.27 -200.313,-1026.2 31.395,-319.14 129.567,-556.82 267.079,-784.55 14.707,-24.24 46.503,-63.99 74.722,-99.76 20.27,-25.83 74.719,-87.04 75.117,-91.8 3.18,-27.43 -44.914,-74.721 -50.078,-100.158 -7.949,-41.731 4.371,-86.641 0,-125.192 C 878.746,717.648 818.73,615.898 759.512,536.422 476.93,761.371 257.938,1096.81 125.195,1487.49 48.0898,1714.82 8.74609,1924.28 0,2205.27 c 0,7.16 7.15234,87.84 8.34375,108.1 6.36325,93.8 2.38675,182.83 25.03905,292.13 46.1055,221.37 110.4882,416.12 200.3122,608.88 88.629,191.17 169.707,368.03 283.778,534.16 35.371,51.67 79.086,114.07 116.843,150.23 56.836,54.06 159.77,122.81 249.993,158.59 7.55,3.17 60.011,21.85 91.808,16.68 26.623,-3.97 48.483,-89.82 50.083,-108.5" /><path
         id="path32"
         style="fill:#ffffff;fill-opacity:1;fill-rule:nonzero;stroke:none"
         d="m 180.156,2277.05 c 5.352,4.34 61.407,5.08 64.727,1.49 3.359,-3.52 4.531,-116.59 1.289,-120.38 -3.262,-3.82 -61.758,-4.8 -64.453,-1.36 -2.754,3.43 -7.012,115.92 -1.563,120.25" /><path
         id="path34"
         style="fill:#ffffff;fill-opacity:1;fill-rule:nonzero;stroke:none"
         d="m 226.836,2631.76 c 6.074,3.51 61.504,-3.95 64.336,-7.97 2.793,-4.02 -12.539,-116.02 -16.367,-119.28 -3.789,-3.26 -61.7,4.24 -63.985,8.05 -2.187,3.77 10,115.72 16.016,119.2" /><path
         id="path36"
         style="fill:#ffffff;fill-opacity:1;fill-rule:nonzero;stroke:none"
         d="m 200.898,1926.48 c 4.981,4.89 60.645,10.94 64.375,7.78 3.653,-3.28 15.625,-115.74 12.676,-119.85 -2.89,-4.1 -60.957,-10.62 -64.023,-7.53 -3.028,3.24 -18.047,114.84 -13.028,119.6" /><path
         id="path38"
         style="fill:#ffffff;fill-opacity:1;fill-rule:nonzero;stroke:none"
         d="m 277.363,1583.32 c 3.653,5.86 55.996,25.7 60.391,23.56 4.336,-2.23 44.141,-108.05 42.363,-112.82 -1.777,-4.65 -56.387,-25.54 -60.156,-23.32 -3.731,2.35 -46.191,106.53 -42.598,112.58" /><path
         id="path40"
         style="fill:#ffffff;fill-opacity:1;fill-rule:nonzero;stroke:none"
         d="m 412.305,1257.66 c 2.558,6.44 50.664,35.11 55.332,33.71 4.668,-1.41 62.285,-98.71 61.406,-103.67 -0.977,-4.93 -51.094,-35.08 -55.195,-33.44 -4.063,1.64 -64.063,96.95 -61.543,103.4" /><path
         id="path42"
         style="fill:#ffffff;fill-opacity:1;fill-rule:nonzero;stroke:none"
         d="m 4192.6,2271.31 c -5.28,4.45 -61.25,6.95 -64.69,3.48 -3.44,-3.36 -8.16,-116.43 -5.04,-120.26 3.2,-3.9 61.56,-6.76 64.45,-3.4 2.86,3.36 10.55,115.65 5.28,120.18" /><path
         id="path44"
         style="fill:#ffffff;fill-opacity:1;fill-rule:nonzero;stroke:none"
         d="m 4156.89,2627.31 c -5.89,3.69 -61.56,-2.04 -64.49,-6.02 -2.93,-3.89 8.87,-116.39 12.58,-119.79 3.71,-3.37 61.88,2.39 64.26,6.1 2.26,3.77 -6.41,115.99 -12.35,119.71" /><path
         id="path46"
         style="fill:#ffffff;fill-opacity:1;fill-rule:nonzero;stroke:none"
         d="m 4160.92,1921.56 c -4.85,5 -60.28,12.82 -64.06,9.69 -3.79,-3.16 -19.26,-115.16 -16.53,-119.34 2.81,-4.18 60.71,-12.5 63.83,-9.45 3.13,3.05 21.56,114.06 16.76,119.1" /><path
         id="path48"
         style="fill:#ffffff;fill-opacity:1;fill-rule:nonzero;stroke:none"
         d="m 3928.81,1259.57 c -2.31,6.52 -49.57,36.68 -54.26,35.43 -4.69,-1.21 -65.39,-96.8 -64.53,-101.64 0.78,-5 49.92,-36.68 54.06,-35.23 4.14,1.56 67.11,94.92 64.73,101.44" /></g></g></svg>